<svg width="18" height="18" viewBox="0 0 18 18" fill="none" xmlns="http://www.w3.org/2000/svg">
<path d="M15.7799 7.31989H16.3199C16.4799 7.31989 16.6099 7.25989 16.7099 7.13989C16.8099 7.01989 16.8599 6.88989 16.8599 6.74989C16.8599 6.60989 16.8099 6.47989 16.7099 6.35989C16.6099 6.23989 16.4799 6.17989 16.3199 6.17989H14.9399L14.0999 4.73989C13.8199 4.29989 13.4699 3.95989 13.0499 3.71989C12.6299 3.47989 12.1599 3.35989 11.6399 3.35989H6.35989C5.83989 3.35989 5.36989 3.47989 4.94989 3.71989C4.52989 3.95989 4.17989 4.29989 3.89989 4.73989L3.05989 6.17989H1.67989C1.51989 6.17989 1.38989 6.23989 1.28989 6.35989C1.18989 6.47989 1.13989 6.60989 1.13989 6.74989C1.13989 6.88989 1.18989 7.01989 1.28989 7.13989C1.38989 7.25989 1.51989 7.31989 1.67989 7.31989H2.27989L1.91989 7.73989C1.39989 8.45989 1.13989 9.25989 1.13989 10.1399V12.9599C1.13989 13.3999 1.29989 13.7899 1.61989 14.1299C1.93989 14.4699 2.33989 14.6399 2.81989 14.6399H3.95989C4.39989 14.6399 4.78989 14.4699 5.12989 14.1299C5.46989 13.7899 5.63989 13.3999 5.63989 12.9599H12.3599C12.3599 13.3999 12.5299 13.7899 12.8699 14.1299C13.2099 14.4699 13.5999 14.6399 14.0399 14.6399H15.1799C15.6599 14.6399 16.0599 14.4699 16.3799 14.1299C16.6999 13.7899 16.8599 13.3999 16.8599 12.9599V10.1399C16.8599 9.25989 16.5999 8.45989 16.0799 7.73989L15.7799 7.31989ZM4.85989 5.33989C5.01989 5.05989 5.22989 4.84989 5.48989 4.70989C5.74989 4.56989 6.03989 4.49989 6.35989 4.49989H11.6399C11.9599 4.49989 12.2499 4.56989 12.5099 4.70989C12.7699 4.84989 12.9799 5.05989 13.1399 5.33989L13.8599 6.59989L13.4999 6.83989C13.0199 7.15989 12.4999 7.31989 11.9399 7.31989H6.05989C5.49989 7.31989 4.97989 7.15989 4.49989 6.83989L4.13989 6.59989L4.85989 5.33989ZM15.7799 12.9599C15.7799 13.0799 15.7199 13.1999 15.5999 13.3199C15.4799 13.4399 15.3399 13.4999 15.1799 13.4999H14.0399C13.9199 13.4999 13.7999 13.4399 13.6799 13.3199C13.5599 13.1999 13.4999 13.0799 13.4999 12.9599V12.3599C13.4999 12.1999 13.4499 12.0699 13.3499 11.9699C13.2499 11.8699 13.1199 11.8199 12.9599 11.8199H5.03989C4.87989 11.8199 4.74989 11.8699 4.64989 11.9699C4.54989 12.0699 4.49989 12.1999 4.49989 12.3599V12.9599C4.49989 13.0799 4.43989 13.1999 4.31989 13.3199C4.19989 13.4399 4.07989 13.4999 3.95989 13.4999H2.81989C2.65989 13.4999 2.51989 13.4399 2.39989 13.3199C2.27989 13.1999 2.21989 13.0799 2.21989 12.9599V10.1399C2.25989 9.49989 2.45989 8.93989 2.81989 8.45989L3.47989 7.49989L3.89989 7.79989C4.57989 8.23989 5.29989 8.45989 6.05989 8.45989H11.9399C12.6999 8.45989 13.4199 8.23989 14.0999 7.79989L14.5199 7.49989L15.1799 8.45989C15.5399 8.93989 15.7199 9.49989 15.7199 10.1399V12.9599H15.7799ZM13.4999 10.1399C13.4999 10.2999 13.5499 10.4299 13.6499 10.5299C13.7499 10.6299 13.8799 10.6799 14.0399 10.6799C14.1999 10.6799 14.3399 10.6299 14.4599 10.5299C14.5799 10.4299 14.6399 10.2999 14.6399 10.1399C14.6399 9.97989 14.5799 9.83989 14.4599 9.71989C14.3399 9.59989 14.1999 9.53989 14.0399 9.53989C13.8799 9.53989 13.7499 9.59989 13.6499 9.71989C13.5499 9.83989 13.4999 9.97989 13.4999 10.1399ZM3.35989 10.1399C3.35989 10.2999 3.41989 10.4299 3.53989 10.5299C3.65989 10.6299 3.79989 10.6799 3.95989 10.6799C4.11989 10.6799 4.24989 10.6299 4.34989 10.5299C4.44989 10.4299 4.49989 10.2999 4.49989 10.1399C4.49989 9.97989 4.44989 9.83989 4.34989 9.71989C4.24989 9.59989 4.11989 9.53989 3.95989 9.53989C3.79989 9.53989 3.65989 9.59989 3.53989 9.71989C3.41989 9.83989 3.35989 9.97989 3.35989 10.1399Z" fill="#050B20"/>
</svg>
