<svg width="19" height="19" viewBox="0 0 19 19" fill="none" xmlns="http://www.w3.org/2000/svg">
<path d="M3.52047 1.76008C2.96047 1.76008 2.48047 1.96008 2.08047 2.36008C1.68047 2.76008 1.48047 3.25008 1.48047 3.83008C1.48047 4.41008 1.68047 4.90008 2.08047 5.30008C2.48047 5.70008 2.96047 5.90008 3.52047 5.90008C4.08047 5.90008 4.56047 5.70008 4.96047 5.30008C5.36047 4.90008 5.56047 4.41008 5.56047 3.83008C5.56047 3.25008 5.36047 2.76008 4.96047 2.36008C4.56047 1.96008 4.08047 1.76008 3.52047 1.76008ZM3.52047 2.90008C3.76047 2.90008 3.98047 2.99008 4.18047 3.17008C4.38047 3.35008 4.48047 3.57008 4.48047 3.83008C4.48047 4.09008 4.38047 4.31008 4.18047 4.49008C3.98047 4.67008 3.76047 4.76008 3.52047 4.76008C3.28047 4.76008 3.06047 4.67008 2.86047 4.49008C2.66047 4.31008 2.56047 4.09008 2.56047 3.83008C2.56047 3.57008 2.66047 3.35008 2.86047 3.17008C3.06047 2.99008 3.28047 2.90008 3.52047 2.90008ZM3.52047 12.2601C2.96047 12.2601 2.48047 12.4601 2.08047 12.8601C1.68047 13.2601 1.48047 13.7501 1.48047 14.3301C1.48047 14.9101 1.68047 15.4001 2.08047 15.8001C2.48047 16.2001 2.96047 16.4001 3.52047 16.4001C4.08047 16.4001 4.56047 16.2001 4.96047 15.8001C5.36047 15.4001 5.56047 14.9101 5.56047 14.3301C5.56047 13.7501 5.36047 13.2601 4.96047 12.8601C4.56047 12.4601 4.08047 12.2601 3.52047 12.2601ZM3.52047 13.4001C3.76047 13.4001 3.98047 13.4901 4.18047 13.6701C4.38047 13.8501 4.48047 14.0701 4.48047 14.3301C4.48047 14.5901 4.38047 14.8101 4.18047 14.9901C3.98047 15.1701 3.76047 15.2601 3.52047 15.2601C3.28047 15.2601 3.06047 15.1701 2.86047 14.9901C2.66047 14.8101 2.56047 14.5901 2.56047 14.3301C2.56047 14.0701 2.66047 13.8501 2.86047 13.6701C3.06047 13.4901 3.28047 13.4001 3.52047 13.4001ZM9.52047 1.76008C8.96047 1.76008 8.48047 1.96008 8.08047 2.36008C7.68047 2.76008 7.48047 3.25008 7.48047 3.83008C7.48047 4.41008 7.68047 4.90008 8.08047 5.30008C8.48047 5.70008 8.96047 5.90008 9.52047 5.90008C10.0805 5.90008 10.5605 5.70008 10.9605 5.30008C11.3605 4.90008 11.5605 4.41008 11.5605 3.83008C11.5605 3.25008 11.3605 2.76008 10.9605 2.36008C10.5605 1.96008 10.0805 1.76008 9.52047 1.76008ZM9.52047 2.90008C9.76047 2.90008 9.98047 2.99008 10.1805 3.17008C10.3805 3.35008 10.4805 3.57008 10.4805 3.83008C10.4805 4.09008 10.3805 4.31008 10.1805 4.49008C9.98047 4.67008 9.76047 4.76008 9.52047 4.76008C9.28047 4.76008 9.06047 4.67008 8.86047 4.49008C8.66047 4.31008 8.56047 4.09008 8.56047 3.83008C8.56047 3.57008 8.66047 3.35008 8.86047 3.17008C9.06047 2.99008 9.28047 2.90008 9.52047 2.90008ZM9.52047 12.2601C8.96047 12.2601 8.48047 12.4601 8.08047 12.8601C7.68047 13.2601 7.48047 13.7501 7.48047 14.3301C7.48047 14.9101 7.68047 15.4001 8.08047 15.8001C8.48047 16.2001 8.96047 16.4001 9.52047 16.4001C10.0805 16.4001 10.5605 16.2001 10.9605 15.8001C11.3605 15.4001 11.5605 14.9101 11.5605 14.3301C11.5605 13.7501 11.3605 13.2601 10.9605 12.8601C10.5605 12.4601 10.0805 12.2601 9.52047 12.2601ZM9.52047 13.4001C9.76047 13.4001 9.98047 13.4901 10.1805 13.6701C10.3805 13.8501 10.4805 14.0701 10.4805 14.3301C10.4805 14.5901 10.3805 14.8101 10.1805 14.9901C9.98047 15.1701 9.76047 15.2601 9.52047 15.2601C9.28047 15.2601 9.06047 15.1701 8.86047 14.9901C8.66047 14.8101 8.56047 14.5901 8.56047 14.3301C8.56047 14.0701 8.66047 13.8501 8.86047 13.6701C9.06047 13.4901 9.28047 13.4001 9.52047 13.4001ZM15.5205 1.76008C14.9605 1.76008 14.4805 1.96008 14.0805 2.36008C13.6805 2.76008 13.4805 3.25008 13.4805 3.83008C13.4805 4.41008 13.6805 4.90008 14.0805 5.30008C14.4805 5.70008 14.9605 5.90008 15.5205 5.90008C16.0805 5.90008 16.5605 5.70008 16.9605 5.30008C17.3605 4.90008 17.5605 4.41008 17.5605 3.83008C17.5605 3.25008 17.3605 2.76008 16.9605 2.36008C16.5605 1.96008 16.0805 1.76008 15.5205 1.76008ZM15.5205 2.90008C15.7605 2.90008 15.9805 2.99008 16.1805 3.17008C16.3805 3.35008 16.4805 3.57008 16.4805 3.83008C16.4805 4.09008 16.3805 4.31008 16.1805 4.49008C15.9805 4.67008 15.7605 4.76008 15.5205 4.76008C15.2805 4.76008 15.0605 4.67008 14.8605 4.49008C14.6605 4.31008 14.5605 4.09008 14.5605 3.83008C14.5605 3.57008 14.6605 3.35008 14.8605 3.17008C15.0605 2.99008 15.2805 2.90008 15.5205 2.90008ZM15.5205 12.2601C14.9605 12.2601 14.4805 12.4601 14.0805 12.8601C13.6805 13.2601 13.4805 13.7501 13.4805 14.3301C13.4805 14.9101 13.6805 15.4001 14.0805 15.8001C14.4805 16.2001 14.9605 16.4001 15.5205 16.4001C16.0805 16.4001 16.5605 16.2001 16.9605 15.8001C17.3605 15.4001 17.5605 14.9101 17.5605 14.3301C17.5605 13.7501 17.3605 13.2601 16.9605 12.8601C16.5605 12.4601 16.0805 12.2601 15.5205 12.2601ZM15.5205 13.4001C15.7605 13.4001 15.9805 13.4901 16.1805 13.6701C16.3805 13.8501 16.4805 14.0701 16.4805 14.3301C16.4805 14.5901 16.3805 14.8101 16.1805 14.9901C15.9805 15.1701 15.7605 15.2601 15.5205 15.2601C15.2805 15.2601 15.0605 15.1701 14.8605 14.9901C14.6605 14.8101 14.5605 14.5901 14.5605 14.3301C14.5605 14.0701 14.6605 13.8501 14.8605 13.6701C15.0605 13.4901 15.2805 13.4001 15.5205 13.4001ZM2.98047 5.30008V12.8001C2.98047 12.9601 3.03047 13.1001 3.13047 13.2201C3.23047 13.3401 3.36047 13.4001 3.52047 13.4001C3.68047 13.4001 3.81047 13.3401 3.91047 13.2201C4.01047 13.1001 4.06047 12.9801 4.06047 12.8601V5.30008C4.06047 5.18008 4.01047 5.06008 3.91047 4.94008C3.81047 4.82008 3.68047 4.76008 3.52047 4.76008C3.36047 4.76008 3.23047 4.82008 3.13047 4.94008C3.03047 5.06008 2.98047 5.18008 2.98047 5.30008ZM8.98047 5.30008V12.8001C8.98047 12.9601 9.03047 13.1001 9.13047 13.2201C9.23047 13.3401 9.36047 13.4001 9.52047 13.4001C9.68047 13.4001 9.81047 13.3401 9.91047 13.2201C10.0105 13.1001 10.0605 12.9801 10.0605 12.8601V5.30008C10.0605 5.18008 10.0105 5.06008 9.91047 4.94008C9.81047 4.82008 9.68047 4.76008 9.52047 4.76008C9.36047 4.76008 9.23047 4.82008 9.13047 4.94008C9.03047 5.06008 8.98047 5.18008 8.98047 5.30008ZM14.9805 5.30008V8.30008C14.9805 8.38008 14.9605 8.44008 14.9205 8.48008C14.8805 8.52008 14.8405 8.54008 14.8005 8.54008H3.52047C3.36047 8.54008 3.23047 8.59008 3.13047 8.69008C3.03047 8.79008 2.98047 8.92008 2.98047 9.08008C2.98047 9.24008 3.03047 9.37008 3.13047 9.47008C3.23047 9.57008 3.36047 9.62008 3.52047 9.62008H14.8005C15.1605 9.62008 15.4605 9.50008 15.7005 9.26008C15.9405 9.02008 16.0605 8.70008 16.0605 8.30008V5.36008C16.0605 5.20008 16.0105 5.06008 15.9105 4.94008C15.8105 4.82008 15.6805 4.76008 15.5205 4.76008C15.3605 4.76008 15.2305 4.82008 15.1305 4.94008C15.0305 5.06008 14.9805 5.18008 14.9805 5.30008Z" fill="white"/>
</svg>
