<svg width="19" height="19" viewBox="0 0 19 19" fill="none" xmlns="http://www.w3.org/2000/svg">
<g clip-path="url(#clip0_9_1485)">
<path d="M11.5599 4.33022C11.5599 4.17022 11.5099 4.04022 11.4099 3.94022C11.3099 3.84021 11.1799 3.79022 11.0199 3.79022H5.37992C5.21992 3.79022 5.08992 3.84021 4.98992 3.94022C4.88992 4.04022 4.83992 4.17022 4.83992 4.33022V8.83022C4.83992 8.99022 4.88992 9.13021 4.98992 9.25022C5.08992 9.37022 5.21992 9.43021 5.37992 9.43021H11.0199C11.1799 9.43021 11.3099 9.37022 11.4099 9.25022C11.5099 9.13021 11.5599 8.99022 11.5599 8.83022V4.33022ZM10.4199 8.29022H5.91992V4.93021H10.4199V8.29022ZM18.0399 4.93021L15.7599 3.85021C15.6399 3.77022 15.4999 3.75022 15.3399 3.79022C15.1799 3.83022 15.0699 3.92022 15.0099 4.06021C14.9499 4.20022 14.9399 4.35021 14.9799 4.51021C15.0199 4.67022 15.1199 4.77022 15.2799 4.81021L16.1199 5.29022L16.0599 5.47021C16.0599 5.83022 16.1699 6.15022 16.3899 6.43021C16.6099 6.71022 16.8799 6.91022 17.1999 7.03022V13.8702C17.1999 14.0302 17.1399 14.1702 17.0199 14.2902C16.8999 14.4102 16.7699 14.4702 16.6299 14.4702C16.4899 14.4702 16.3599 14.4102 16.2399 14.2902C16.1199 14.1702 16.0599 14.0302 16.0599 13.8702V9.37022C16.0599 8.73022 15.8299 8.15022 15.3699 7.63021C14.9099 7.11022 14.3999 6.79022 13.8399 6.67021V3.19022C13.8399 2.59022 13.6199 2.07022 13.1799 1.63021C12.7399 1.19022 12.2199 0.970215 11.6199 0.970215H4.83992C4.23992 0.970215 3.70992 1.19022 3.24992 1.63021C2.78992 2.07022 2.55992 2.59022 2.55992 3.19022V15.7902L1.77992 16.2102C1.53992 16.3302 1.41992 16.4902 1.41992 16.6902V18.3702C1.41992 18.5302 1.47992 18.6702 1.59992 18.7902C1.71992 18.9102 1.85992 18.9702 2.01992 18.9702H14.3799C14.5399 18.9702 14.6699 18.9102 14.7699 18.7902C14.8699 18.6702 14.9199 18.5302 14.9199 18.3702V16.6902C14.9199 16.4902 14.8199 16.3302 14.6199 16.2102L13.8399 15.7902V7.81021C14.1199 7.93021 14.3699 8.14021 14.5899 8.44022C14.8099 8.74022 14.9199 9.05021 14.9199 9.37022V13.8702C14.9199 14.3502 15.0899 14.7602 15.4299 15.1002C15.7699 15.4402 16.1699 15.6102 16.6299 15.6102C17.0899 15.6102 17.4899 15.4402 17.8299 15.1002C18.1699 14.7602 18.3399 14.3502 18.3399 13.8702V5.47021C18.3399 5.23022 18.2399 5.05021 18.0399 4.93021ZM13.8399 17.8302H2.55992V17.0502L3.39992 16.6302C3.59992 16.5502 3.69992 16.3902 3.69992 16.1502V3.19022C3.69992 2.91022 3.80992 2.66022 4.02992 2.44022C4.24992 2.22021 4.51992 2.11022 4.83992 2.11022H11.6199C11.8999 2.11022 12.1499 2.22021 12.3699 2.44022C12.5899 2.66022 12.6999 2.91022 12.6999 3.19022V16.1502C12.6999 16.3902 12.7999 16.5502 12.9999 16.6302L13.8399 17.0502V17.8302Z" fill="#405FF2"/>
</g>
<defs>
<clipPath id="clip0_9_1485">
<rect width="18" height="18" fill="white" transform="matrix(1 0 0 -1 0.879883 18.9702)"/>
</clipPath>
</defs>
</svg>
