<svg width="19" height="19" viewBox="0 0 19 19" fill="none" xmlns="http://www.w3.org/2000/svg">
<g clip-path="url(#clip0_5_389)">
<path d="M11.1986 3.44008C11.1986 3.28008 11.1486 3.15008 11.0486 3.05008C10.9486 2.95008 10.8186 2.90008 10.6586 2.90008H5.01859C4.85859 2.90008 4.72859 2.95008 4.62859 3.05008C4.52859 3.15008 4.47859 3.28008 4.47859 3.44008V7.94008C4.47859 8.10008 4.52859 8.24008 4.62859 8.36008C4.72859 8.48008 4.85859 8.54008 5.01859 8.54008H10.6586C10.8186 8.54008 10.9486 8.48008 11.0486 8.36008C11.1486 8.24008 11.1986 8.10008 11.1986 7.94008V3.44008ZM10.0586 7.40008H5.55859V4.04008H10.0586V7.40008ZM17.6786 4.04008L15.3986 2.96008C15.2786 2.88008 15.1386 2.86008 14.9786 2.90008C14.8186 2.94008 14.7086 3.03008 14.6486 3.17008C14.5886 3.31008 14.5786 3.46008 14.6186 3.62008C14.6586 3.78008 14.7586 3.88008 14.9186 3.92008L15.7586 4.40008L15.6986 4.58008C15.6986 4.94008 15.8086 5.26008 16.0286 5.54008C16.2486 5.82008 16.5186 6.02008 16.8386 6.14008V12.9801C16.8386 13.1401 16.7786 13.2801 16.6586 13.4001C16.5386 13.5201 16.4086 13.5801 16.2686 13.5801C16.1286 13.5801 15.9986 13.5201 15.8786 13.4001C15.7586 13.2801 15.6986 13.1401 15.6986 12.9801V8.48008C15.6986 7.84008 15.4686 7.26008 15.0086 6.74008C14.5486 6.22008 14.0386 5.90008 13.4786 5.78008V2.30008C13.4786 1.70008 13.2586 1.18008 12.8186 0.740078C12.3786 0.300079 11.8586 0.0800781 11.2586 0.0800781H4.47859C3.87859 0.0800781 3.34859 0.300079 2.88859 0.740078C2.42859 1.18008 2.19859 1.70008 2.19859 2.30008V14.9001L1.41859 15.3201C1.17859 15.4401 1.05859 15.6001 1.05859 15.8001V17.4801C1.05859 17.6401 1.11859 17.7801 1.23859 17.9001C1.35859 18.0201 1.49859 18.0801 1.65859 18.0801H14.0186C14.1786 18.0801 14.3086 18.0201 14.4086 17.9001C14.5086 17.7801 14.5586 17.6401 14.5586 17.4801V15.8001C14.5586 15.6001 14.4586 15.4401 14.2586 15.3201L13.4786 14.9001V6.92008C13.7586 7.04008 14.0086 7.25008 14.2286 7.55008C14.4486 7.85008 14.5586 8.16008 14.5586 8.48008V12.9801C14.5586 13.4601 14.7286 13.8701 15.0686 14.2101C15.4086 14.5501 15.8086 14.7201 16.2686 14.7201C16.7286 14.7201 17.1286 14.5501 17.4686 14.2101C17.8086 13.8701 17.9786 13.4601 17.9786 12.9801V4.58008C17.9786 4.34008 17.8786 4.16008 17.6786 4.04008ZM13.4786 16.9401H2.19859V16.1601L3.03859 15.7401C3.23859 15.6601 3.33859 15.5001 3.33859 15.2601V2.30008C3.33859 2.02008 3.44859 1.77008 3.66859 1.55008C3.88859 1.33008 4.15859 1.22008 4.47859 1.22008H11.2586C11.5386 1.22008 11.7886 1.33008 12.0086 1.55008C12.2286 1.77008 12.3386 2.02008 12.3386 2.30008V15.2601C12.3386 15.5001 12.4386 15.6601 12.6386 15.7401L13.4786 16.1601V16.9401Z" fill="white"/>
</g>
<defs>
<clipPath id="clip0_5_389">
<rect width="18" height="18" fill="white" transform="matrix(1 0 0 -1 0.519531 18.0801)"/>
</clipPath>
</defs>
</svg>
