<svg width="1080" height="1080" viewBox="0 0 1080 1080" fill="none" xmlns="http://www.w3.org/2000/svg">
<rect width="1080" height="1080" fill="#282829"/>
<path d="M634.5 314.5L584.5 379.5L807.5 380L844 314.5H634.5Z" fill="white"/>
<path d="M807.5 410.5H563.5L518.5 468.5H738.5V508L644.5 508.5L596.5 573.5H807.5V410.5Z" fill="white"/>
<path d="M635.5 508.5L588.5 573.5H552L598.5 508.5H635.5Z" fill="white"/>
<path d="M553.5 508.5H589.5L542.5 573.5H506L553.5 508.5Z" fill="white"/>
<path d="M462 573.5L512 508.5H544.5L496.5 573.5H462Z" fill="white"/>
<path d="M436 573.5H357V379.5H236L286 314.5H581L530 380H436V573.5Z" fill="#5833FF"/>
<path d="M214.961 619.5H231.648L249.273 662.5H250.023L267.648 619.5H284.336V683.5H271.211V641.844H270.68L254.117 683.187H245.18L228.617 641.687H228.086V683.5H214.961V619.5ZM335.016 619.5H348.547V661.062C348.547 665.729 347.432 669.812 345.203 673.312C342.995 676.812 339.901 679.542 335.922 681.5C331.943 683.438 327.307 684.406 322.016 684.406C316.703 684.406 312.057 683.438 308.078 681.5C304.099 679.542 301.005 676.812 298.797 673.312C296.589 669.812 295.484 665.729 295.484 661.062V619.5H309.016V659.906C309.016 662.344 309.547 664.51 310.609 666.406C311.693 668.302 313.214 669.792 315.172 670.875C317.13 671.958 319.411 672.5 322.016 672.5C324.641 672.5 326.922 671.958 328.859 670.875C330.818 669.792 332.328 668.302 333.391 666.406C334.474 664.51 335.016 662.344 335.016 659.906V619.5ZM359.68 683.5V619.5H373.211V672.344H400.648V683.5H359.68ZM399.18 630.656V619.5H451.742V630.656H432.148V683.5H418.773V630.656H399.18ZM473.93 619.5V683.5H460.398V619.5H473.93ZM485.062 619.5H501.75L519.375 662.5H520.125L537.75 619.5H554.438V683.5H541.313V641.844H540.781L524.219 683.187H515.281L498.719 641.687H498.188V683.5H485.062V619.5ZM576.617 683.5H562.117L584.211 619.5H601.648L623.711 683.5H609.211L593.18 634.125H592.68L576.617 683.5ZM575.711 658.344H609.961V668.906H575.711V658.344ZM631.414 683.5V619.5H656.664C661.497 619.5 665.622 620.365 669.039 622.094C672.477 623.802 675.091 626.229 676.883 629.375C678.695 632.5 679.602 636.177 679.602 640.406C679.602 644.656 678.685 648.312 676.852 651.375C675.018 654.417 672.362 656.75 668.883 658.375C665.424 660 661.237 660.812 656.32 660.812H639.414V649.937H654.133C656.716 649.937 658.862 649.583 660.57 648.875C662.279 648.167 663.549 647.104 664.383 645.688C665.237 644.271 665.664 642.51 665.664 640.406C665.664 638.281 665.237 636.49 664.383 635.031C663.549 633.573 662.268 632.469 660.539 631.719C658.831 630.948 656.674 630.562 654.07 630.562H644.945V683.5H631.414ZM665.977 654.375L681.883 683.5H666.945L651.383 654.375H665.977ZM745.633 641.906H731.945C731.695 640.135 731.185 638.562 730.414 637.187C729.643 635.792 728.654 634.604 727.445 633.625C726.237 632.646 724.841 631.896 723.258 631.375C721.695 630.854 719.997 630.594 718.164 630.594C714.852 630.594 711.966 631.417 709.508 633.062C707.049 634.687 705.143 637.062 703.789 640.188C702.435 643.292 701.758 647.062 701.758 651.5C701.758 656.062 702.435 659.896 703.789 663C705.164 666.104 707.081 668.448 709.539 670.031C711.997 671.615 714.841 672.406 718.07 672.406C719.883 672.406 721.56 672.167 723.102 671.688C724.664 671.208 726.049 670.51 727.258 669.594C728.466 668.656 729.466 667.521 730.258 666.188C731.07 664.854 731.633 663.333 731.945 661.625L745.633 661.687C745.279 664.625 744.393 667.458 742.977 670.188C741.581 672.896 739.695 675.323 737.32 677.469C734.966 679.594 732.154 681.281 728.883 682.531C725.633 683.76 721.956 684.375 717.852 684.375C712.143 684.375 707.039 683.083 702.539 680.5C698.06 677.917 694.518 674.177 691.914 669.281C689.331 664.385 688.039 658.458 688.039 651.5C688.039 644.521 689.352 638.583 691.977 633.688C694.602 628.792 698.164 625.062 702.664 622.5C707.164 619.917 712.227 618.625 717.852 618.625C721.56 618.625 724.997 619.146 728.164 620.187C731.352 621.229 734.174 622.75 736.633 624.75C739.091 626.729 741.091 629.156 742.633 632.031C744.195 634.906 745.195 638.198 745.633 641.906ZM765.164 683.5H750.664L772.758 619.5H790.195L812.258 683.5H797.758L781.727 634.125H781.227L765.164 683.5ZM764.258 658.344H798.508V668.906H764.258V658.344ZM853.219 637.906C852.969 635.385 851.896 633.427 850 632.031C848.104 630.635 845.531 629.937 842.281 629.937C840.073 629.937 838.208 630.25 836.688 630.875C835.167 631.479 834 632.323 833.188 633.406C832.396 634.49 832 635.719 832 637.094C831.958 638.24 832.198 639.24 832.719 640.094C833.26 640.948 834 641.687 834.938 642.312C835.875 642.917 836.958 643.448 838.187 643.906C839.417 644.344 840.729 644.719 842.125 645.031L847.875 646.406C850.667 647.031 853.229 647.865 855.562 648.906C857.896 649.948 859.917 651.229 861.625 652.75C863.333 654.271 864.656 656.062 865.594 658.125C866.552 660.187 867.042 662.552 867.062 665.219C867.042 669.135 866.042 672.531 864.063 675.406C862.104 678.26 859.271 680.479 855.562 682.062C851.875 683.625 847.427 684.406 842.219 684.406C837.052 684.406 832.552 683.615 828.719 682.031C824.906 680.448 821.927 678.104 819.781 675C817.656 671.875 816.542 668.01 816.437 663.406H829.531C829.677 665.552 830.292 667.344 831.375 668.781C832.479 670.198 833.948 671.271 835.781 672C837.635 672.708 839.729 673.062 842.062 673.062C844.354 673.062 846.344 672.729 848.031 672.062C849.74 671.396 851.063 670.469 852 669.281C852.938 668.094 853.406 666.729 853.406 665.187C853.406 663.75 852.979 662.542 852.125 661.562C851.292 660.583 850.063 659.75 848.438 659.062C846.833 658.375 844.865 657.75 842.531 657.187L835.563 655.437C830.167 654.125 825.906 652.073 822.781 649.281C819.656 646.49 818.104 642.729 818.125 638C818.104 634.125 819.135 630.74 821.219 627.844C823.323 624.948 826.208 622.687 829.875 621.062C833.542 619.437 837.708 618.625 842.375 618.625C847.125 618.625 851.271 619.437 854.813 621.062C858.375 622.687 861.146 624.948 863.125 627.844C865.104 630.74 866.125 634.094 866.187 637.906H853.219Z" fill="#5833FF"/>
<path d="M446.616 724.514H439.179C438.967 723.295 438.575 722.214 438.005 721.273C437.435 720.318 436.726 719.509 435.877 718.847C435.029 718.184 434.061 717.687 432.974 717.355C431.9 717.01 430.74 716.838 429.494 716.838C427.28 716.838 425.318 717.395 423.608 718.509C421.897 719.609 420.558 721.226 419.591 723.361C418.623 725.482 418.139 728.074 418.139 731.136C418.139 734.252 418.623 736.877 419.591 739.011C420.572 741.133 421.911 742.737 423.608 743.824C425.318 744.898 427.273 745.435 429.474 745.435C430.694 745.435 431.834 745.276 432.895 744.957C433.968 744.626 434.93 744.142 435.778 743.506C436.64 742.869 437.362 742.087 437.946 741.159C438.542 740.231 438.953 739.17 439.179 737.977L446.616 738.017C446.338 739.953 445.734 741.769 444.806 743.466C443.892 745.163 442.692 746.661 441.207 747.96C439.722 749.246 437.985 750.254 435.997 750.983C434.008 751.699 431.801 752.057 429.375 752.057C425.795 752.057 422.6 751.228 419.789 749.571C416.979 747.914 414.765 745.521 413.147 742.392C411.53 739.263 410.721 735.511 410.721 731.136C410.721 726.748 411.537 722.996 413.167 719.881C414.798 716.752 417.019 714.359 419.829 712.702C422.64 711.045 425.822 710.216 429.375 710.216C431.642 710.216 433.75 710.534 435.699 711.17C437.647 711.807 439.384 712.741 440.909 713.974C442.433 715.194 443.686 716.692 444.667 718.469C445.662 720.232 446.311 722.247 446.616 724.514ZM458.11 751.5H450.235L464.574 710.773H473.681L488.039 751.5H480.164L469.287 719.125H468.968L458.11 751.5ZM458.369 735.531H479.846V741.457H458.369V735.531ZM486.692 716.957V710.773H519.186V716.957H506.598V751.5H499.28V716.957H486.692ZM525.759 751.5H517.884L532.222 710.773H541.33L555.688 751.5H547.813L536.935 719.125H536.617L525.759 751.5ZM526.017 735.531H547.495V741.457H526.017V735.531ZM561.052 751.5V710.773H568.43V745.315H586.368V751.5H561.052ZM599.532 751.5H591.657L605.995 710.773H615.103L629.461 751.5H621.586L610.708 719.125H610.39L599.532 751.5ZM599.791 735.531H621.268V741.457H599.791V735.531ZM604.723 706.756L600.348 706.656C600.348 704.296 600.958 702.447 602.177 701.108C603.41 699.769 604.915 699.099 606.691 699.099C607.553 699.099 608.302 699.245 608.939 699.537C609.588 699.815 610.178 700.14 610.708 700.511C611.239 700.883 611.762 701.214 612.279 701.506C612.797 701.784 613.367 701.923 613.99 701.923C614.745 701.923 615.342 701.638 615.779 701.068C616.23 700.498 616.462 699.769 616.475 698.881L620.751 699.06C620.738 701.433 620.121 703.276 618.902 704.588C617.682 705.887 616.19 706.544 614.427 706.557C613.459 706.557 612.651 706.418 612.001 706.139C611.351 705.848 610.781 705.516 610.291 705.145C609.814 704.774 609.33 704.449 608.839 704.17C608.349 703.879 607.772 703.733 607.109 703.733C606.406 703.733 605.83 704.011 605.379 704.568C604.941 705.125 604.723 705.854 604.723 706.756ZM669.304 731.136C669.304 735.525 668.482 739.283 666.838 742.412C665.207 745.527 662.98 747.914 660.156 749.571C657.345 751.228 654.157 752.057 650.591 752.057C647.024 752.057 643.829 751.228 641.005 749.571C638.195 747.901 635.967 745.508 634.324 742.392C632.693 739.263 631.877 735.511 631.877 731.136C631.877 726.748 632.693 722.996 634.324 719.881C635.967 716.752 638.195 714.359 641.005 712.702C643.829 711.045 647.024 710.216 650.591 710.216C654.157 710.216 657.345 711.045 660.156 712.702C662.98 714.359 665.207 716.752 666.838 719.881C668.482 722.996 669.304 726.748 669.304 731.136ZM661.886 731.136C661.886 728.047 661.402 725.442 660.434 723.321C659.48 721.187 658.154 719.576 656.457 718.489C654.76 717.388 652.805 716.838 650.591 716.838C648.377 716.838 646.421 717.388 644.724 718.489C643.027 719.576 641.695 721.187 640.727 723.321C639.772 725.442 639.295 728.047 639.295 731.136C639.295 734.225 639.772 736.837 640.727 738.972C641.695 741.093 643.027 742.704 644.724 743.804C646.421 744.891 648.377 745.435 650.591 745.435C652.805 745.435 654.76 744.891 656.457 743.804C658.154 742.704 659.48 741.093 660.434 738.972C661.402 736.837 661.886 734.225 661.886 731.136Z" fill="white"/>
</svg>
