<?xml version="1.0" standalone="no"?>
<!DOCTYPE svg PUBLIC "-//W3C//DTD SVG 20010904//EN"
 "http://www.w3.org/TR/2001/REC-SVG-20010904/DTD/svg10.dtd">
<svg version="1.0" xmlns="http://www.w3.org/2000/svg"
 width="224.000000pt" height="225.000000pt" viewBox="0 0 224.000000 225.000000"
 preserveAspectRatio="xMidYMid meet">

<g transform="translate(0.000000,225.000000) scale(0.100000,-0.100000)"
fill="#000000" stroke="none">
<path d="M0 1635 c0 -338 2 -615 4 -615 2 0 24 11 47 25 43 24 79 32 79 17 0
-4 -19 -13 -42 -20 -24 -7 -53 -20 -65 -28 l-23 -14 0 -500 0 -500 1120 0
1120 0 0 1125 0 1125 -1120 0 -1120 0 0 -615z m1020 -352 c0 -5 -39 -9 -87
-11 -49 -1 -97 -4 -108 -6 -59 -11 -129 -17 -123 -11 19 19 318 46 318 28z
m237 -32 c92 -19 376 -120 339 -121 -5 0 -3 -6 3 -13 6 -8 8 -17 4 -20 -3 -4
6 -7 21 -7 21 0 27 4 22 15 -4 12 0 14 22 8 15 -3 52 -12 82 -19 49 -11 39
-12 -109 -8 -91 2 -167 6 -169 9 -3 3 23 5 57 5 71 0 78 14 20 42 -50 23 -235
87 -273 93 -17 3 -53 10 -81 15 -27 5 -76 12 -107 15 -32 4 -58 10 -58 14 0 7
140 -10 227 -28z m-652 -31 c-95 -31 -101 -33 -93 -25 9 10 143 54 163 54 11
0 -20 -13 -70 -29z m-110 -39 c-3 -5 -21 -15 -40 -21 -19 -6 -35 -15 -35 -19
0 -4 -19 -16 -42 -26 l-43 -19 30 -7 c33 -7 36 -7 -100 -14 -27 -1 -63 -6 -78
-10 -17 -5 -33 -3 -39 3 -8 8 -6 11 8 11 10 0 39 3 64 7 25 4 59 7 77 8 17 1
31 4 30 9 -2 7 148 85 166 86 5 1 6 -3 2 -8z m1430 -116 c53 -17 34 -18 -35 0
-30 7 -44 13 -30 13 14 0 43 -5 65 -13z m80 -25 c4 -6 11 -8 16 -5 5 4 9 1 9
-4 0 -6 7 -11 15 -11 8 0 15 -5 15 -10 0 -6 -19 -1 -42 11 -52 26 -56 29 -35
29 9 0 19 -5 22 -10z m130 -71 c30 -23 55 -43 55 -45 0 -2 -27 14 -60 34 -33
20 -60 40 -60 45 0 13 10 8 65 -34z m-1951 -4 c12 -13 13 -20 4 -35 -7 -10
-17 -16 -23 -13 -5 3 -4 0 3 -8 18 -19 16 -86 -3 -86 -12 0 -15 15 -15 72 0
86 6 98 34 70z m321 -65 c0 -44 -3 -80 -7 -80 -5 0 -8 25 -8 55 0 42 -3 55
-15 55 -8 0 -15 -4 -15 -8 0 -4 -24 -26 -52 -47 -29 -22 -54 -43 -56 -47 -8
-17 -33 -6 -66 26 -20 18 -39 31 -43 27 -4 -3 -2 1 4 9 11 12 17 11 40 -7 16
-12 27 -26 25 -33 -2 -8 4 -8 20 1 24 13 109 78 119 92 3 4 14 5 25 1 14 -4
15 -3 5 4 -11 8 -10 12 5 21 11 6 19 11 19 11 0 0 0 -36 0 -80z m116 27 c9
-15 8 -18 -3 -14 -7 2 -12 9 -11 15 2 6 -3 9 -10 6 -18 -6 -52 20 -43 34 9 15
52 -12 67 -41z m289 37 c0 -8 -4 -12 -10 -9 -5 3 -10 10 -10 16 0 5 5 9 10 9
6 0 10 -7 10 -16z m378 -1 c-3 -16 -19 -18 -132 -21 -132 -3 -156 -9 -156 -43
0 -43 22 -49 196 -49 l164 0 165 66 c91 36 172 63 180 60 23 -8 17 -161 -5
-161 -11 0 -16 14 -18 58 -2 31 -6 57 -10 57 -4 0 -76 -27 -160 -60 l-153 -60
-168 0 c-153 0 -171 2 -194 20 -33 27 -43 70 -23 108 9 17 21 32 28 35 7 3 75
6 151 6 127 1 138 0 135 -16z m760 5 c7 -7 12 -24 12 -38 0 -37 -17 -50 -70
-51 l-45 -1 58 -15 c44 -12 57 -19 57 -34 0 -10 -2 -19 -4 -19 -3 0 -62 14
-131 30 -69 17 -130 30 -135 30 -5 0 -10 -12 -12 -27 -2 -17 -9 -28 -18 -28
-12 0 -16 17 -18 83 l-3 82 149 0 c102 0 152 -4 160 -12z m-1158 -16 c0 -14
-36 -43 -43 -35 -4 3 -7 -1 -7 -9 0 -15 -8 -21 -35 -28 -5 -2 -16 -11 -23 -21
-15 -22 -59 -49 -47 -29 4 7 2 10 -6 9 -22 -3 -50 12 -42 24 3 6 1 7 -5 3 -15
-9 -52 24 -45 40 3 8 9 11 14 8 5 -3 7 -9 4 -14 -3 -4 6 -11 20 -14 14 -4 25
-13 25 -21 0 -28 54 -10 98 32 8 7 18 11 23 7 5 -3 8 -2 7 3 -4 12 34 53 49
53 7 0 13 -4 13 -8z m-670 -22 c0 -5 8 -10 17 -10 12 0 14 -3 6 -11 -13 -13
-57 6 -48 22 8 12 25 12 25 -1z m1421 -74 c-16 -19 -41 -10 -41 14 0 24 21 31
39 14 11 -10 12 -16 2 -28z"/>
<path d="M1780 935 c0 -13 20 -15 126 -15 96 0 125 3 122 13 -3 8 -40 13 -126
15 -104 2 -122 0 -122 -13z"/>
</g>
</svg>
