<svg width="662" height="451" viewBox="0 0 662 451" fill="none" xmlns="http://www.w3.org/2000/svg">
<path d="M425.5 0L375.5 65L598.5 65.5L635 0H425.5Z" fill="white"/>
<path d="M598.5 96H354.5L309.5 154H529.5V193.5L435.5 194L387.5 259H598.5V96Z" fill="white"/>
<path d="M426.5 194L379.5 259H343L389.5 194H426.5Z" fill="white"/>
<path d="M344.5 194H380.5L333.5 259H297L344.5 194Z" fill="white"/>
<path d="M253 259L303 194H335.5L287.5 259H253Z" fill="white"/>
<path d="M227 259H148V65H27L77 0H372L321 65.5H227V259Z" fill="white"/>
<path d="M5.96094 305H22.6484L40.2734 348H41.0234L58.6484 305H75.3359V369H62.2109V327.344H61.6797L45.1172 368.687H36.1797L19.6172 327.187H19.0859V369H5.96094V305ZM126.016 305H139.547V346.562C139.547 351.229 138.432 355.312 136.203 358.812C133.995 362.312 130.901 365.042 126.922 367C122.943 368.938 118.307 369.906 113.016 369.906C107.703 369.906 103.057 368.938 99.0781 367C95.099 365.042 92.0052 362.312 89.7969 358.812C87.5885 355.312 86.4844 351.229 86.4844 346.562V305H100.016V345.406C100.016 347.844 100.547 350.01 101.609 351.906C102.693 353.802 104.214 355.292 106.172 356.375C108.13 357.458 110.411 358 113.016 358C115.641 358 117.922 357.458 119.859 356.375C121.818 355.292 123.328 353.802 124.391 351.906C125.474 350.01 126.016 347.844 126.016 345.406V305ZM150.68 369V305H164.211V357.844H191.648V369H150.68ZM190.18 316.156V305H242.742V316.156H223.148V369H209.773V316.156H190.18ZM264.93 305V369H251.398V305H264.93ZM276.062 305H292.75L310.375 348H311.125L328.75 305H345.438V369H332.313V327.344H331.781L315.219 368.687H306.281L289.719 327.187H289.188V369H276.062V305ZM367.617 369H353.117L375.211 305H392.648L414.711 369H400.211L384.18 319.625H383.68L367.617 369ZM366.711 343.844H400.961V354.406H366.711V343.844ZM422.414 369V305H447.664C452.497 305 456.622 305.865 460.039 307.594C463.477 309.302 466.091 311.729 467.883 314.875C469.695 318 470.602 321.677 470.602 325.906C470.602 330.156 469.685 333.812 467.852 336.875C466.018 339.917 463.362 342.25 459.883 343.875C456.424 345.5 452.237 346.312 447.32 346.312H430.414V335.437H445.133C447.716 335.437 449.862 335.083 451.57 334.375C453.279 333.667 454.549 332.604 455.383 331.188C456.237 329.771 456.664 328.01 456.664 325.906C456.664 323.781 456.237 321.99 455.383 320.531C454.549 319.073 453.268 317.969 451.539 317.219C449.831 316.448 447.674 316.062 445.07 316.062H435.945V369H422.414ZM456.977 339.875L472.883 369H457.945L442.383 339.875H456.977ZM536.633 327.406H522.945C522.695 325.635 522.185 324.062 521.414 322.687C520.643 321.292 519.654 320.104 518.445 319.125C517.237 318.146 515.841 317.396 514.258 316.875C512.695 316.354 510.997 316.094 509.164 316.094C505.852 316.094 502.966 316.917 500.508 318.562C498.049 320.187 496.143 322.562 494.789 325.688C493.435 328.792 492.758 332.562 492.758 337C492.758 341.562 493.435 345.396 494.789 348.5C496.164 351.604 498.081 353.948 500.539 355.531C502.997 357.115 505.841 357.906 509.07 357.906C510.883 357.906 512.56 357.667 514.102 357.188C515.664 356.708 517.049 356.01 518.258 355.094C519.466 354.156 520.466 353.021 521.258 351.688C522.07 350.354 522.633 348.833 522.945 347.125L536.633 347.187C536.279 350.125 535.393 352.958 533.977 355.688C532.581 358.396 530.695 360.823 528.32 362.969C525.966 365.094 523.154 366.781 519.883 368.031C516.633 369.26 512.956 369.875 508.852 369.875C503.143 369.875 498.039 368.583 493.539 366C489.06 363.417 485.518 359.677 482.914 354.781C480.331 349.885 479.039 343.958 479.039 337C479.039 330.021 480.352 324.083 482.977 319.188C485.602 314.292 489.164 310.562 493.664 308C498.164 305.417 503.227 304.125 508.852 304.125C512.56 304.125 515.997 304.646 519.164 305.687C522.352 306.729 525.174 308.25 527.633 310.25C530.091 312.229 532.091 314.656 533.633 317.531C535.195 320.406 536.195 323.698 536.633 327.406ZM556.164 369H541.664L563.758 305H581.195L603.258 369H588.758L572.727 319.625H572.227L556.164 369ZM555.258 343.844H589.508V354.406H555.258V343.844ZM644.219 323.406C643.969 320.885 642.896 318.927 641 317.531C639.104 316.135 636.531 315.437 633.281 315.437C631.073 315.437 629.208 315.75 627.688 316.375C626.167 316.979 625 317.823 624.188 318.906C623.396 319.99 623 321.219 623 322.594C622.958 323.74 623.198 324.74 623.719 325.594C624.26 326.448 625 327.187 625.938 327.812C626.875 328.417 627.958 328.948 629.187 329.406C630.417 329.844 631.729 330.219 633.125 330.531L638.875 331.906C641.667 332.531 644.229 333.365 646.562 334.406C648.896 335.448 650.917 336.729 652.625 338.25C654.333 339.771 655.656 341.562 656.594 343.625C657.552 345.687 658.042 348.052 658.062 350.719C658.042 354.635 657.042 358.031 655.063 360.906C653.104 363.76 650.271 365.979 646.562 367.562C642.875 369.125 638.427 369.906 633.219 369.906C628.052 369.906 623.552 369.115 619.719 367.531C615.906 365.948 612.927 363.604 610.781 360.5C608.656 357.375 607.542 353.51 607.437 348.906H620.531C620.677 351.052 621.292 352.844 622.375 354.281C623.479 355.698 624.948 356.771 626.781 357.5C628.635 358.208 630.729 358.562 633.062 358.562C635.354 358.562 637.344 358.229 639.031 357.562C640.74 356.896 642.063 355.969 643 354.781C643.938 353.594 644.406 352.229 644.406 350.687C644.406 349.25 643.979 348.042 643.125 347.062C642.292 346.083 641.063 345.25 639.438 344.562C637.833 343.875 635.865 343.25 633.531 342.687L626.563 340.937C621.167 339.625 616.906 337.573 613.781 334.781C610.656 331.99 609.104 328.229 609.125 323.5C609.104 319.625 610.135 316.24 612.219 313.344C614.323 310.448 617.208 308.187 620.875 306.562C624.542 304.937 628.708 304.125 633.375 304.125C638.125 304.125 642.271 304.937 645.813 306.562C649.375 308.187 652.146 310.448 654.125 313.344C656.104 316.24 657.125 319.594 657.187 323.406H644.219ZM237.616 410.014H230.179C229.967 408.795 229.575 407.714 229.005 406.773C228.435 405.818 227.726 405.009 226.877 404.347C226.029 403.684 225.061 403.187 223.974 402.855C222.9 402.51 221.74 402.338 220.494 402.338C218.28 402.338 216.318 402.895 214.608 404.009C212.897 405.109 211.558 406.726 210.591 408.861C209.623 410.982 209.139 413.574 209.139 416.636C209.139 419.752 209.623 422.377 210.591 424.511C211.572 426.633 212.911 428.237 214.608 429.324C216.318 430.398 218.273 430.935 220.474 430.935C221.694 430.935 222.834 430.776 223.895 430.457C224.968 430.126 225.93 429.642 226.778 429.006C227.64 428.369 228.362 427.587 228.946 426.659C229.542 425.731 229.953 424.67 230.179 423.477L237.616 423.517C237.338 425.453 236.734 427.269 235.806 428.966C234.892 430.663 233.692 432.161 232.207 433.46C230.722 434.746 228.985 435.754 226.997 436.483C225.008 437.199 222.801 437.557 220.375 437.557C216.795 437.557 213.6 436.728 210.789 435.071C207.979 433.414 205.765 431.021 204.147 427.892C202.53 424.763 201.721 421.011 201.721 416.636C201.721 412.248 202.537 408.496 204.167 405.381C205.798 402.252 208.019 399.859 210.829 398.202C213.64 396.545 216.822 395.716 220.375 395.716C222.642 395.716 224.75 396.034 226.699 396.67C228.647 397.307 230.384 398.241 231.909 399.474C233.433 400.694 234.686 402.192 235.667 403.969C236.662 405.732 237.311 407.747 237.616 410.014ZM249.11 437H241.235L255.574 396.273H264.681L279.039 437H271.164L260.287 404.625H259.968L249.11 437ZM249.369 421.031H270.846V426.957H249.369V421.031ZM277.692 402.457V396.273H310.186V402.457H297.598V437H290.28V402.457H277.692ZM316.759 437H308.884L323.222 396.273H332.33L346.688 437H338.813L327.935 404.625H327.617L316.759 437ZM317.017 421.031H338.495V426.957H317.017V421.031ZM352.052 437V396.273H359.43V430.815H377.368V437H352.052ZM390.532 437H382.657L396.995 396.273H406.103L420.461 437H412.586L401.708 404.625H401.39L390.532 437ZM390.791 421.031H412.268V426.957H390.791V421.031ZM395.723 392.256L391.348 392.156C391.348 389.796 391.958 387.947 393.177 386.608C394.41 385.269 395.915 384.599 397.691 384.599C398.553 384.599 399.302 384.745 399.939 385.037C400.588 385.315 401.178 385.64 401.708 386.011C402.239 386.383 402.762 386.714 403.279 387.006C403.797 387.284 404.367 387.423 404.99 387.423C405.745 387.423 406.342 387.138 406.779 386.568C407.23 385.998 407.462 385.269 407.475 384.381L411.751 384.56C411.738 386.933 411.121 388.776 409.902 390.088C408.682 391.387 407.19 392.044 405.427 392.057C404.459 392.057 403.651 391.918 403.001 391.639C402.351 391.348 401.781 391.016 401.291 390.645C400.814 390.274 400.33 389.949 399.839 389.67C399.349 389.379 398.772 389.233 398.109 389.233C397.406 389.233 396.83 389.511 396.379 390.068C395.941 390.625 395.723 391.354 395.723 392.256ZM460.304 416.636C460.304 421.025 459.482 424.783 457.838 427.912C456.207 431.027 453.98 433.414 451.156 435.071C448.345 436.728 445.157 437.557 441.591 437.557C438.024 437.557 434.829 436.728 432.005 435.071C429.195 433.401 426.967 431.008 425.324 427.892C423.693 424.763 422.877 421.011 422.877 416.636C422.877 412.248 423.693 408.496 425.324 405.381C426.967 402.252 429.195 399.859 432.005 398.202C434.829 396.545 438.024 395.716 441.591 395.716C445.157 395.716 448.345 396.545 451.156 398.202C453.98 399.859 456.207 402.252 457.838 405.381C459.482 408.496 460.304 412.248 460.304 416.636ZM452.886 416.636C452.886 413.547 452.402 410.942 451.434 408.821C450.48 406.687 449.154 405.076 447.457 403.989C445.76 402.888 443.805 402.338 441.591 402.338C439.377 402.338 437.421 402.888 435.724 403.989C434.027 405.076 432.695 406.687 431.727 408.821C430.772 410.942 430.295 413.547 430.295 416.636C430.295 419.725 430.772 422.337 431.727 424.472C432.695 426.593 434.027 428.204 435.724 429.304C437.421 430.391 439.377 430.935 441.591 430.935C443.805 430.935 445.76 430.391 447.457 429.304C449.154 428.204 450.48 426.593 451.434 424.472C452.402 422.337 452.886 419.725 452.886 416.636Z" fill="white"/>
</svg>
