<svg width="2466" height="286" viewBox="0 0 2466 286" fill="none" xmlns="http://www.w3.org/2000/svg">
    <path
        d="M185.225 2.19999L152.025 37H104.425L86.825 136H45.425L62.825 37H0.025001L33.225 2.19999H185.225ZM312.136 55.6C326.669 55.6 337.669 58.2 345.136 63.4C352.736 68.4667 356.536 76 356.536 86C356.536 93.2 355.336 99.8667 352.936 106C350.536 112.133 346.669 117.467 341.336 122C336.136 126.4 329.336 129.867 320.936 132.4C312.669 134.8 302.603 136 290.736 136H166.136L198.736 101.6H300.136C305.736 101.6 309.803 100.667 312.336 98.8C314.869 96.9333 316.136 94.0667 316.136 90.2C316.136 84.8667 311.936 82.2 303.536 82.2H230.536C215.336 82.2 204.203 79.2667 197.136 73.4C190.069 67.5333 186.536 59.7333 186.536 50C186.536 43.2 187.736 36.9333 190.136 31.2C192.536 25.3333 196.336 20.2667 201.536 16C206.869 11.6 213.669 8.2 221.936 5.8C230.203 3.39999 240.203 2.19999 251.936 2.19999H368.136L335.336 37H242.536C236.936 37 232.869 37.8667 230.336 39.6C227.803 41.2 226.536 44 226.536 48C226.536 53.0667 230.803 55.6 239.336 55.6H312.136Z"
        fill="url(#paint0_linear_13_11)" />
    <path
        d="M473.714 52C477.181 61.2 480.114 69.0667 482.514 75.6C484.914 82 486.847 87.4667 488.314 92C489.781 89.6 491.381 87.2 493.114 84.8C494.847 82.2667 496.781 79.4667 498.914 76.4C501.181 73.2 503.714 69.6667 506.514 65.8C509.447 61.9333 512.847 57.4 516.714 52.2L544.914 14.2C547.981 9.93333 551.514 6.53333 555.514 3.99999C559.647 1.33333 564.514 -1.43051e-06 570.114 -1.43051e-06C575.314 -1.43051e-06 579.714 1.53333 583.314 4.6C587.047 7.53333 589.247 12.1333 589.914 18.4L603.114 136H561.914L557.314 89.4C556.647 81.8 556.114 75.1333 555.714 69.4C555.314 63.6667 555.047 58.0667 554.914 52.6C553.447 55 551.847 57.4667 550.114 60C548.514 62.4 546.647 65.1333 544.514 68.2C542.514 71.1333 540.247 74.3333 537.714 77.8C535.314 81.2667 532.581 85.2 529.514 89.6L505.714 123.2C503.314 126.533 501.047 129.2 498.914 131.2C496.914 133.067 494.847 134.533 492.714 135.6C490.581 136.667 488.447 137.333 486.314 137.6C484.181 138 481.847 138.2 479.314 138.2C476.781 138.2 474.447 138 472.314 137.6C470.314 137.333 468.447 136.667 466.714 135.6C464.981 134.533 463.381 133.067 461.914 131.2C460.581 129.2 459.314 126.533 458.114 123.2L446.114 89.4C444.514 84.8667 443.047 80.8 441.714 77.2C440.514 73.6 439.447 70.4 438.514 67.6C437.581 64.6667 436.714 62 435.914 59.6C435.247 57.2 434.581 54.8667 433.914 52.6C431.914 57.5333 429.581 63.1333 426.914 69.4C424.247 75.5333 421.381 82.2 418.314 89.4L397.514 136H356.914L412.114 18.4C415.181 12.1333 419.114 7.53333 423.914 4.6C428.714 1.53333 433.714 -1.43051e-06 438.914 -1.43051e-06C444.247 -1.43051e-06 448.514 1.26666 451.714 3.8C454.914 6.33333 457.381 9.8 459.114 14.2L473.714 52ZM794.85 77.6C787.65 118 756.317 138.2 700.85 138.2C672.183 138.2 651.183 134.2 637.85 126.2C624.65 118.2 618.05 106.2 618.05 90.2C618.05 86.2 618.45 82 619.25 77.6L632.65 2.19999H674.05L660.45 77.6C660.05 80.4 659.85 82.8667 659.85 85C659.85 88.4667 660.583 91.4 662.05 93.8C663.517 96.2 666.05 98.1333 669.65 99.6C673.25 101.067 678.05 102.133 684.05 102.8C690.05 103.467 697.65 103.8 706.85 103.8C714.85 103.8 721.583 103.333 727.05 102.4C732.65 101.467 737.25 99.9333 740.85 97.8C744.45 95.6667 747.183 92.9333 749.05 89.6C751.05 86.2667 752.45 82.2667 753.25 77.6L766.65 2.19999H808.25L794.85 77.6ZM959.316 101.6L926.316 136H808.116L831.916 2.19999H873.116L855.516 101.6H959.316ZM1131.71 2.19999L1098.51 37H1050.91L1033.31 136H991.909L1009.31 37H946.509L979.709 2.19999H1131.71ZM1162.42 136H1121.02L1144.82 2.19999H1186.02L1162.42 136ZM1295.39 52C1298.86 61.2 1301.79 69.0667 1304.19 75.6C1306.59 82 1308.53 87.4667 1309.99 92C1311.46 89.6 1313.06 87.2 1314.79 84.8C1316.53 82.2667 1318.46 79.4667 1320.59 76.4C1322.86 73.2 1325.39 69.6667 1328.19 65.8C1331.13 61.9333 1334.53 57.4 1338.39 52.2L1366.59 14.2C1369.66 9.93333 1373.19 6.53333 1377.19 3.99999C1381.33 1.33333 1386.19 -1.43051e-06 1391.79 -1.43051e-06C1396.99 -1.43051e-06 1401.39 1.53333 1404.99 4.6C1408.73 7.53333 1410.93 12.1333 1411.59 18.4L1424.79 136H1383.59L1378.99 89.4C1378.33 81.8 1377.79 75.1333 1377.39 69.4C1376.99 63.6667 1376.73 58.0667 1376.59 52.6C1375.13 55 1373.53 57.4667 1371.79 60C1370.19 62.4 1368.33 65.1333 1366.19 68.2C1364.19 71.1333 1361.93 74.3333 1359.39 77.8C1356.99 81.2667 1354.26 85.2 1351.19 89.6L1327.39 123.2C1324.99 126.533 1322.73 129.2 1320.59 131.2C1318.59 133.067 1316.53 134.533 1314.39 135.6C1312.26 136.667 1310.13 137.333 1307.99 137.6C1305.86 138 1303.53 138.2 1300.99 138.2C1298.46 138.2 1296.13 138 1293.99 137.6C1291.99 137.333 1290.13 136.667 1288.39 135.6C1286.66 134.533 1285.06 133.067 1283.59 131.2C1282.26 129.2 1280.99 126.533 1279.79 123.2L1267.79 89.4C1266.19 84.8667 1264.73 80.8 1263.39 77.2C1262.19 73.6 1261.13 70.4 1260.19 67.6C1259.26 64.6667 1258.39 62 1257.59 59.6C1256.93 57.2 1256.26 54.8667 1255.59 52.6C1253.59 57.5333 1251.26 63.1333 1248.59 69.4C1245.93 75.5333 1243.06 82.2 1239.99 89.4L1219.19 136H1178.59L1233.79 18.4C1236.86 12.1333 1240.79 7.53333 1245.59 4.6C1250.39 1.53333 1255.39 -1.43051e-06 1260.59 -1.43051e-06C1265.93 -1.43051e-06 1270.19 1.26666 1273.39 3.8C1276.59 6.33333 1279.06 9.8 1280.79 14.2L1295.39 52ZM1496.55 136L1527.75 101.6H1561.15C1565.28 101.6 1569.48 101.6 1573.75 101.6C1578.02 101.6 1581.75 101.733 1584.95 102C1583.48 99.6 1581.82 96.6 1579.95 93C1578.08 89.2667 1576.35 85.8 1574.75 82.6L1556.95 47.2L1478.55 136H1429.55L1536.75 15C1540.22 11.1333 1544.35 7.66667 1549.15 4.6C1553.95 1.53333 1559.62 -1.43051e-06 1566.15 -1.43051e-06C1572.42 -1.43051e-06 1577.35 1.46666 1580.95 4.39999C1584.68 7.19999 1587.68 10.7333 1589.95 15L1652.15 136H1496.55ZM1856.7 136H1801.3L1777.7 100.6H1714.1L1707.9 136H1666.5L1678.5 67.6H1794.9C1798.37 67.6 1801.64 67.2 1804.7 66.4C1807.9 65.6 1810.64 64.4667 1812.9 63C1815.3 61.5333 1817.17 59.7333 1818.5 57.6C1819.97 55.3333 1820.7 52.8667 1820.7 50.2C1820.7 45.8 1818.9 42.5333 1815.3 40.4C1811.7 38.1333 1806.7 37 1800.3 37H1683.9L1717.1 2.19999H1803.1C1810.04 2.19999 1817.1 2.79999 1824.3 3.99999C1831.64 5.2 1838.24 7.39999 1844.1 10.6C1850.1 13.6667 1854.97 17.8 1858.7 23C1862.44 28.2 1864.3 34.8 1864.3 42.8C1864.3 48.8 1863.24 54.5333 1861.1 60C1859.1 65.4667 1856.17 70.4 1852.3 74.8C1848.57 79.2 1844.04 82.9333 1838.7 86C1833.37 89.0667 1827.5 91.2 1821.1 92.4C1822.97 94.1333 1825.04 96.3333 1827.3 99C1829.7 101.667 1832.77 105.333 1836.5 110L1856.7 136ZM2042.91 101.6L2010.31 136H1943.11C1932.71 136 1923.18 134.533 1914.51 131.6C1905.98 128.533 1898.64 124.4 1892.51 119.2C1886.51 113.867 1881.84 107.6 1878.51 100.4C1875.18 93.2 1873.51 85.4 1873.51 77C1873.51 66.0667 1875.98 56 1880.91 46.8C1885.84 37.6 1892.51 29.7333 1900.91 23.2C1909.31 16.5333 1919.18 11.4 1930.51 7.79999C1941.84 4.06666 1953.91 2.19999 1966.71 2.19999H2060.51L2027.71 37H1960.51C1954.38 37 1948.51 37.9333 1942.91 39.8C1937.44 41.6667 1932.64 44.2667 1928.51 47.6C1924.38 50.9333 1921.11 54.8667 1918.71 59.4C1916.31 63.8 1915.11 68.6667 1915.11 74C1915.11 78.1333 1915.91 81.9333 1917.51 85.4C1919.24 88.7333 1921.58 91.6 1924.51 94C1927.58 96.4 1931.18 98.2667 1935.31 99.6C1939.44 100.933 1944.04 101.6 1949.11 101.6H2042.91ZM2101.04 136L2132.24 101.6H2165.64C2169.78 101.6 2173.98 101.6 2178.24 101.6C2182.51 101.6 2186.24 101.733 2189.44 102C2187.98 99.6 2186.31 96.6 2184.44 93C2182.58 89.2667 2180.84 85.8 2179.24 82.6L2161.44 47.2L2083.04 136H2034.04L2141.24 15C2144.71 11.1333 2148.84 7.66667 2153.64 4.6C2158.44 1.53333 2164.11 -1.43051e-06 2170.64 -1.43051e-06C2176.91 -1.43051e-06 2181.84 1.46666 2185.44 4.39999C2189.18 7.19999 2192.18 10.7333 2194.44 15L2256.64 136H2101.04ZM2409.6 55.6C2424.13 55.6 2435.13 58.2 2442.6 63.4C2450.2 68.4667 2454 76 2454 86C2454 93.2 2452.8 99.8667 2450.4 106C2448 112.133 2444.13 117.467 2438.8 122C2433.6 126.4 2426.8 129.867 2418.4 132.4C2410.13 134.8 2400.06 136 2388.2 136H2263.6L2296.2 101.6H2397.6C2403.2 101.6 2407.26 100.667 2409.8 98.8C2412.33 96.9333 2413.6 94.0667 2413.6 90.2C2413.6 84.8667 2409.4 82.2 2401 82.2H2328C2312.8 82.2 2301.66 79.2667 2294.6 73.4C2287.53 67.5333 2284 59.7333 2284 50C2284 43.2 2285.2 36.9333 2287.6 31.2C2290 25.3333 2293.8 20.2667 2299 16C2304.33 11.6 2311.13 8.2 2319.4 5.8C2327.66 3.39999 2337.66 2.19999 2349.4 2.19999H2465.6L2432.8 37H2340C2334.4 37 2330.33 37.8667 2327.8 39.6C2325.26 41.2 2324 44 2324 48C2324 53.0667 2328.26 55.6 2336.8 55.6H2409.6Z"
        fill="#ED0000" />
    <path
        d="M877.085 258.544L852.961 284H803.233C795.537 284 788.482 282.915 782.069 280.744C775.754 278.475 770.328 275.416 765.789 271.568C761.349 267.621 757.896 262.984 755.429 257.656C752.962 252.328 751.729 246.556 751.729 240.34C751.729 232.249 753.554 224.8 757.205 217.992C760.856 211.184 765.789 205.363 772.005 200.528C778.221 195.595 785.522 191.796 793.909 189.132C802.296 186.369 811.225 184.988 820.697 184.988H890.109L865.837 210.74H816.109C811.57 210.74 807.229 211.431 803.085 212.812C799.04 214.193 795.488 216.117 792.429 218.584C789.37 221.051 786.953 223.961 785.177 227.316C783.401 230.572 782.513 234.173 782.513 238.12C782.513 241.179 783.105 243.991 784.289 246.556C785.572 249.023 787.298 251.144 789.469 252.92C791.738 254.696 794.402 256.077 797.461 257.064C800.52 258.051 803.924 258.544 807.673 258.544H877.085ZM920.104 284L943.192 258.544H967.908C970.967 258.544 974.075 258.544 977.232 258.544C980.39 258.544 983.152 258.643 985.52 258.84C984.435 257.064 983.202 254.844 981.82 252.18C980.439 249.417 979.156 246.852 977.972 244.484L964.8 218.288L906.784 284H870.524L949.852 194.46C952.418 191.599 955.476 189.033 959.028 186.764C962.58 184.495 966.774 183.36 971.608 183.36C976.246 183.36 979.896 184.445 982.56 186.616C985.323 188.688 987.543 191.303 989.22 194.46L1035.25 284H920.104ZM1155.11 184.988L1130.55 210.74H1095.32L1082.3 284H1051.66L1064.54 210.74H1018.07L1042.63 184.988H1155.11ZM1157.42 284L1180.51 258.544H1205.23C1208.29 258.544 1211.4 258.544 1214.55 258.544C1217.71 258.544 1220.47 258.643 1222.84 258.84C1221.76 257.064 1220.52 254.844 1219.14 252.18C1217.76 249.417 1216.48 246.852 1215.29 244.484L1202.12 218.288L1144.1 284H1107.84L1187.17 194.46C1189.74 191.599 1192.8 189.033 1196.35 186.764C1199.9 184.495 1204.09 183.36 1208.93 183.36C1213.57 183.36 1217.22 184.445 1219.88 186.616C1222.64 188.688 1224.86 191.303 1226.54 194.46L1272.57 284H1157.42ZM1395.37 258.544L1370.95 284H1283.49L1301.1 184.988H1331.59L1318.56 258.544H1395.37ZM1437.96 284L1461.05 258.544H1485.76C1488.82 258.544 1491.93 258.544 1495.09 258.544C1498.25 258.544 1501.01 258.643 1503.38 258.84C1502.29 257.064 1501.06 254.844 1499.68 252.18C1498.29 249.417 1497.01 246.852 1495.83 244.484L1482.66 218.288L1424.64 284H1388.38L1467.71 194.46C1470.27 191.599 1473.33 189.033 1476.88 186.764C1480.44 184.495 1484.63 183.36 1489.46 183.36C1494.1 183.36 1497.75 184.445 1500.42 186.616C1503.18 188.688 1505.4 191.303 1507.08 194.46L1553.1 284H1437.96ZM1500.42 175.664C1498.44 175.664 1496.62 175.368 1494.94 174.776C1493.36 174.085 1491.78 173.395 1490.2 172.704C1488.63 171.915 1487 171.224 1485.32 170.632C1483.64 169.941 1481.87 169.596 1479.99 169.596C1477.72 169.596 1475.5 170.139 1473.33 171.224C1471.16 172.211 1469.29 173.444 1467.71 174.924L1469.93 162.64C1473.18 159.68 1477.23 158.2 1482.06 158.2C1483.94 158.2 1485.71 158.545 1487.39 159.236C1489.07 159.828 1490.65 160.519 1492.13 161.308C1493.71 162.097 1495.29 162.837 1496.86 163.528C1498.54 164.12 1500.37 164.416 1502.34 164.416C1504.61 164.416 1506.83 163.923 1509 162.936C1511.17 161.851 1513.05 160.568 1514.62 159.088L1512.55 171.224C1510.87 172.901 1509 174.085 1506.93 174.776C1504.86 175.368 1502.69 175.664 1500.42 175.664ZM1635.87 183.36C1657.38 183.36 1673.46 186.764 1684.12 193.572C1694.87 200.281 1700.25 210.839 1700.25 225.244C1700.25 245.569 1693.44 260.715 1679.83 270.68C1666.21 280.645 1645.54 285.628 1617.81 285.628C1596.3 285.628 1580.17 282.224 1569.42 275.416C1558.76 268.608 1553.43 258.001 1553.43 243.596C1553.43 223.271 1560.24 208.175 1573.86 198.308C1587.47 188.343 1608.14 183.36 1635.87 183.36ZM1622.25 259.876C1632.22 259.876 1640.26 259.432 1646.38 258.544C1652.59 257.656 1657.38 256.028 1660.73 253.66C1664.19 251.292 1666.51 248.085 1667.69 244.04C1668.87 239.896 1669.47 234.667 1669.47 228.352C1669.47 224.405 1668.73 221.199 1667.25 218.732C1665.86 216.167 1663.59 214.193 1660.44 212.812C1657.38 211.332 1653.43 210.345 1648.6 209.852C1643.76 209.359 1637.99 209.112 1631.28 209.112C1621.32 209.112 1613.27 209.556 1607.16 210.444C1601.04 211.332 1596.25 212.96 1592.8 215.328C1589.45 217.696 1587.18 220.952 1585.99 225.096C1584.81 229.141 1584.22 234.321 1584.22 240.636C1584.22 244.681 1584.96 247.937 1586.44 250.404C1587.92 252.871 1590.19 254.844 1593.25 256.324C1596.3 257.705 1600.2 258.643 1604.94 259.136C1609.77 259.629 1615.54 259.876 1622.25 259.876Z"
        fill="#333" />
    <defs>
        <linearGradient id="paint0_linear_13_11" x1="-17.5001" y1="-33.0001" x2="199.996"
            y2="857.135" gradientUnits="userSpaceOnUse">
            <stop stop-color="#304EE7" />
            <stop offset="1" stop-color="#1B2C81" />
        </linearGradient>
    </defs>
</svg>
    