<svg width="3357" height="291" viewBox="0 0 3357 291" fill="none" xmlns="http://www.w3.org/2000/svg">
<path d="M398.5 13L348.5 78L571.5 78.5L608 13H398.5Z" fill="#282829"/>
<path d="M571.5 109H327.5L282.5 167H502.5V206.5L408.5 207L360.5 272H571.5V109Z" fill="#282829"/>
<path d="M399.5 207L352.5 272H316L362.5 207H399.5Z" fill="#282829"/>
<path d="M317.5 207H353.5L306.5 272H270L317.5 207Z" fill="#282829"/>
<path d="M226 272L276 207H308.5L260.5 272H226Z" fill="#282829"/>
<path d="M200 272H121V78H0L50 13H345L294 78.5H200V272Z" fill="#5833FF"/>
<path d="M645.02 13.2727H714.046L786.949 191.136H790.051L862.955 13.2727H931.98V278H877.691V105.695H875.493L806.985 276.707H770.016L701.507 105.048H699.31V278H645.02V13.2727ZM1141.61 13.2727H1197.58V185.19C1197.58 204.493 1192.97 221.384 1183.75 235.861C1174.61 250.338 1161.82 261.627 1145.36 269.727C1128.9 277.741 1109.73 281.749 1087.84 281.749C1065.86 281.749 1046.65 277.741 1030.19 269.727C1013.73 261.627 1000.93 250.338 991.796 235.861C982.662 221.384 978.094 204.493 978.094 185.19V13.2727H1034.06V180.408C1034.06 190.49 1036.26 199.452 1040.66 207.294C1045.14 215.136 1051.43 221.297 1059.53 225.778C1067.63 230.259 1077.07 232.5 1087.84 232.5C1098.7 232.5 1108.13 230.259 1116.15 225.778C1124.25 221.297 1130.49 215.136 1134.89 207.294C1139.37 199.452 1141.61 190.49 1141.61 180.408V13.2727ZM1243.63 278V13.2727H1299.6V231.854H1413.09V278H1243.63ZM1407.02 59.419V13.2727H1624.43V59.419H1543.39V278H1488.06V59.419H1407.02ZM1716.21 13.2727V278H1660.24V13.2727H1716.21ZM1762.26 13.2727H1831.28L1904.19 191.136H1907.29L1980.19 13.2727H2049.22V278H1994.93V105.695H1992.73L1924.22 276.707H1887.25L1818.75 105.048H1816.55V278H1762.26V13.2727ZM2140.96 278H2080.98L2172.37 13.2727H2244.5L2335.76 278H2275.78L2209.47 73.767H2207.4L2140.96 278ZM2137.21 173.945H2278.88V217.635H2137.21V173.945ZM2367.62 278V13.2727H2472.06C2492.06 13.2727 2509.12 16.849 2523.25 24.0014C2537.47 31.0677 2548.29 41.107 2555.7 54.1193C2563.19 67.0454 2566.94 82.2552 2566.94 99.7486C2566.94 117.328 2563.15 132.452 2555.57 145.119C2547.98 157.701 2537 167.352 2522.61 174.074C2508.3 180.795 2490.98 184.156 2470.64 184.156H2400.71V139.173H2461.59C2472.28 139.173 2481.16 137.708 2488.22 134.778C2495.29 131.848 2500.55 127.454 2503.99 121.594C2507.53 115.734 2509.29 108.452 2509.29 99.7486C2509.29 90.9588 2507.53 83.5478 2503.99 77.5156C2500.55 71.4834 2495.25 66.9162 2488.09 63.8139C2481.03 60.6255 2472.11 59.0312 2461.34 59.0312H2423.59V278H2367.62ZM2510.58 157.528L2576.38 278H2514.59L2450.22 157.528H2510.58ZM2840.07 105.953H2783.46C2782.42 98.6283 2780.31 92.1221 2777.12 86.4346C2773.93 80.661 2769.84 75.749 2764.84 71.6989C2759.84 67.6487 2754.07 64.5464 2747.52 62.392C2741.06 60.2377 2734.03 59.1605 2726.45 59.1605C2712.75 59.1605 2700.81 62.5644 2690.65 69.3721C2680.48 76.0937 2672.59 85.9176 2666.99 98.8438C2661.39 111.684 2658.59 127.281 2658.59 145.636C2658.59 164.509 2661.39 180.365 2666.99 193.205C2672.68 206.045 2680.61 215.739 2690.78 222.288C2700.94 228.838 2712.71 232.112 2726.06 232.112C2733.56 232.112 2740.5 231.121 2746.87 229.139C2753.34 227.157 2759.07 224.27 2764.07 220.479C2769.06 216.601 2773.2 211.904 2776.48 206.389C2779.84 200.874 2782.16 194.583 2783.46 187.517L2840.07 187.776C2838.61 199.926 2834.94 211.646 2829.08 222.935C2823.31 234.137 2815.51 244.177 2805.69 253.053C2795.95 261.842 2784.32 268.822 2770.79 273.993C2757.34 279.077 2742.14 281.619 2725.16 281.619C2701.55 281.619 2680.43 276.277 2661.82 265.591C2643.29 254.905 2628.64 239.437 2617.87 219.186C2607.19 198.935 2601.84 174.419 2601.84 145.636C2601.84 116.768 2607.27 92.2083 2618.13 71.9574C2628.99 51.7064 2643.72 36.2812 2662.34 25.6818C2680.95 14.9962 2701.89 9.6534 2725.16 9.6534C2740.5 9.6534 2754.72 11.8078 2767.81 16.1165C2781 20.4252 2792.68 26.7159 2802.84 34.9886C2813.01 43.1752 2821.29 53.2145 2827.66 65.1065C2834.13 76.9986 2838.26 90.6141 2840.07 105.953ZM2920.86 278H2860.88L2952.27 13.2727H3024.4L3115.66 278H3055.68L2989.37 73.767H2987.3L2920.86 278ZM2917.11 173.945H3058.78V217.635H2917.11V173.945ZM3285.09 89.4077C3284.05 78.9806 3279.61 70.8802 3271.77 65.1065C3263.93 59.3328 3253.29 56.446 3239.85 56.446C3230.71 56.446 3223 57.7386 3216.71 60.3239C3210.42 62.8229 3205.59 66.313 3202.23 70.794C3198.96 75.2751 3197.32 80.3594 3197.32 86.0469C3197.15 90.7865 3198.14 94.9228 3200.29 98.456C3202.53 101.989 3205.59 105.048 3209.47 107.634C3213.35 110.133 3217.83 112.33 3222.91 114.226C3228 116.036 3233.43 117.587 3239.2 118.879L3262.98 124.567C3274.53 127.152 3285.13 130.599 3294.78 134.908C3304.43 139.216 3312.79 144.516 3319.86 150.807C3326.92 157.098 3332.4 164.509 3336.27 173.04C3340.24 181.571 3342.26 191.352 3342.35 202.382C3342.26 218.583 3338.13 232.629 3329.94 244.521C3321.84 256.327 3310.12 265.505 3294.78 272.054C3279.53 278.517 3261.13 281.749 3239.59 281.749C3218.22 281.749 3199.6 278.474 3183.75 271.925C3167.98 265.375 3155.65 255.681 3146.78 242.841C3137.99 229.915 3133.38 213.929 3132.95 194.885H3187.11C3187.71 203.761 3190.25 211.172 3194.73 217.118C3199.3 222.978 3205.38 227.416 3212.96 230.432C3220.63 233.362 3229.29 234.827 3238.94 234.827C3248.42 234.827 3256.65 233.448 3263.63 230.69C3270.7 227.933 3276.17 224.098 3280.05 219.186C3283.92 214.274 3285.86 208.63 3285.86 202.253C3285.86 196.307 3284.1 191.309 3280.56 187.259C3277.12 183.208 3272.03 179.761 3265.31 176.918C3258.67 174.074 3250.53 171.489 3240.88 169.162L3212.05 161.923C3189.73 156.494 3172.11 148.006 3159.19 136.459C3146.26 124.911 3139.84 109.357 3139.93 89.7954C3139.84 73.767 3144.11 59.7637 3152.72 47.7855C3161.43 35.8073 3173.36 26.4574 3188.53 19.7358C3203.7 13.0142 3220.93 9.6534 3240.23 9.6534C3259.88 9.6534 3277.03 13.0142 3291.68 19.7358C3306.41 26.4574 3317.88 35.8073 3326.06 47.7855C3334.25 59.7637 3338.47 73.6378 3338.73 89.4077H3285.09Z" fill="#5833FF"/>
</svg>
