<svg width="19" height="19" viewBox="0 0 19 19" fill="none" xmlns="http://www.w3.org/2000/svg">
<g clip-path="url(#clip0_5_386)">
<path d="M18.5195 10.7001C18.5195 12.7401 17.9195 14.5601 16.7195 16.1601C16.5995 16.3201 16.4395 16.4101 16.2395 16.4301C16.0395 16.4501 15.8595 16.4001 15.6995 16.2801C15.5395 16.1601 15.4495 16.0101 15.4295 15.8301C15.4095 15.6501 15.4595 15.4801 15.5795 15.3201C16.6195 13.9601 17.1395 12.4201 17.1395 10.7001C17.1395 9.34008 16.7995 8.08008 16.1195 6.92008C15.4395 5.76008 14.5095 4.84008 13.3295 4.16008C12.1495 3.48008 10.8795 3.14008 9.51953 3.14008C8.15953 3.14008 6.88953 3.48008 5.70953 4.16008C4.52953 4.84008 3.59953 5.76008 2.91953 6.92008C2.23953 8.08008 1.89953 9.34008 1.89953 10.7001C1.89953 12.4201 2.41953 13.9601 3.45953 15.3201C3.57953 15.4801 3.62953 15.6501 3.60953 15.8301C3.58953 16.0101 3.49953 16.1601 3.33953 16.2801C3.17953 16.4001 2.99953 16.4501 2.79953 16.4301C2.59953 16.4101 2.43953 16.3201 2.31953 16.1601C1.11953 14.5601 0.519531 12.7401 0.519531 10.7001C0.519531 9.10008 0.919531 7.61008 1.71953 6.23008C2.51953 4.85008 3.60953 3.76008 4.98953 2.96008C6.36953 2.16008 7.87953 1.76008 9.51953 1.76008C11.1595 1.76008 12.6695 2.16008 14.0495 2.96008C15.4295 3.76008 16.5195 4.85008 17.3195 6.23008C18.1195 7.61008 18.5195 9.10008 18.5195 10.7001ZM13.9595 6.50008C14.1195 6.62008 14.1995 6.78008 14.1995 6.98008C14.1995 7.18008 14.1195 7.34008 13.9595 7.46008L11.6795 9.80008C11.8795 10.1601 11.9795 10.5401 11.9795 10.9401C11.9795 11.6201 11.7395 12.2001 11.2595 12.6801C10.7795 13.1601 10.1995 13.4001 9.51953 13.4001C8.83953 13.4001 8.25953 13.1601 7.77953 12.6801C7.29953 12.2001 7.05953 11.6201 7.05953 10.9401C7.05953 10.2601 7.29953 9.68008 7.77953 9.20008C8.25953 8.72008 8.83953 8.48008 9.51953 8.48008C9.91953 8.48008 10.2995 8.58008 10.6595 8.78008L12.9995 6.50008C13.1195 6.34008 13.2795 6.26008 13.4795 6.26008C13.6795 6.26008 13.8395 6.34008 13.9595 6.50008ZM10.5995 10.9401C10.5995 10.6601 10.4895 10.4201 10.2695 10.2201C10.0495 10.0201 9.79953 9.92008 9.51953 9.92008C9.23953 9.92008 8.98953 10.0201 8.76953 10.2201C8.54953 10.4201 8.43953 10.6601 8.43953 10.9401C8.43953 11.2201 8.54953 11.4701 8.76953 11.6901C8.98953 11.9101 9.23953 12.0201 9.51953 12.0201C9.79953 12.0201 10.0495 11.9101 10.2695 11.6901C10.4895 11.4701 10.5995 11.2201 10.5995 10.9401Z" fill="white"/>
</g>
<defs>
<clipPath id="clip0_5_386">
<rect width="18" height="18" fill="white" transform="matrix(1 0 0 -1 0.519531 18.0801)"/>
</clipPath>
</defs>
</svg>
