<svg width="19" height="19" viewBox="0 0 19 19" fill="none" xmlns="http://www.w3.org/2000/svg">
<g clip-path="url(#clip0_9_1476)">
<path d="M18.9199 11.5904C18.9199 13.6304 18.3199 15.4504 17.1199 17.0504C16.9999 17.2104 16.8399 17.3004 16.6399 17.3204C16.4399 17.3404 16.2599 17.2904 16.0999 17.1704C15.9399 17.0504 15.8499 16.9004 15.8299 16.7204C15.8099 16.5404 15.8599 16.3704 15.9799 16.2104C17.0199 14.8504 17.5399 13.3104 17.5399 11.5904C17.5399 10.2304 17.1999 8.97042 16.5199 7.81042C15.8399 6.65042 14.9099 5.73042 13.7299 5.05042C12.5499 4.37042 11.2799 4.03042 9.91992 4.03042C8.55992 4.03042 7.28992 4.37042 6.10992 5.05042C4.92992 5.73042 3.99992 6.65042 3.31992 7.81042C2.63992 8.97042 2.29992 10.2304 2.29992 11.5904C2.29992 13.3104 2.81992 14.8504 3.85992 16.2104C3.97992 16.3704 4.02992 16.5404 4.00992 16.7204C3.98992 16.9004 3.89992 17.0504 3.73992 17.1704C3.57992 17.2904 3.39992 17.3404 3.19992 17.3204C2.99992 17.3004 2.83992 17.2104 2.71992 17.0504C1.51992 15.4504 0.919922 13.6304 0.919922 11.5904C0.919922 9.99042 1.31992 8.50042 2.11992 7.12042C2.91992 5.74042 4.00992 4.65042 5.38992 3.85042C6.76992 3.05042 8.27992 2.65042 9.91992 2.65042C11.5599 2.65042 13.0699 3.05042 14.4499 3.85042C15.8299 4.65042 16.9199 5.74042 17.7199 7.12042C18.5199 8.50042 18.9199 9.99042 18.9199 11.5904ZM14.3599 7.39042C14.5199 7.51042 14.5999 7.67042 14.5999 7.87042C14.5999 8.07042 14.5199 8.23042 14.3599 8.35042L12.0799 10.6904C12.2799 11.0504 12.3799 11.4304 12.3799 11.8304C12.3799 12.5104 12.1399 13.0904 11.6599 13.5704C11.1799 14.0504 10.5999 14.2904 9.91992 14.2904C9.23992 14.2904 8.65992 14.0504 8.17992 13.5704C7.69992 13.0904 7.45992 12.5104 7.45992 11.8304C7.45992 11.1504 7.69992 10.5704 8.17992 10.0904C8.65992 9.61042 9.23992 9.37042 9.91992 9.37042C10.3199 9.37042 10.6999 9.47042 11.0599 9.67042L13.3999 7.39042C13.5199 7.23042 13.6799 7.15042 13.8799 7.15042C14.0799 7.15042 14.2399 7.23042 14.3599 7.39042ZM10.9999 11.8304C10.9999 11.5504 10.8899 11.3104 10.6699 11.1104C10.4499 10.9104 10.1999 10.8104 9.91992 10.8104C9.63992 10.8104 9.38992 10.9104 9.16992 11.1104C8.94992 11.3104 8.83992 11.5504 8.83992 11.8304C8.83992 12.1104 8.94992 12.3604 9.16992 12.5804C9.38992 12.8004 9.63992 12.9104 9.91992 12.9104C10.1999 12.9104 10.4499 12.8004 10.6699 12.5804C10.8899 12.3604 10.9999 12.1104 10.9999 11.8304Z" fill="#405FF2"/>
</g>
<defs>
<clipPath id="clip0_9_1476">
<rect width="18" height="18" fill="white" transform="matrix(1 0 0 -1 0.919922 18.9702)"/>
</clipPath>
</defs>
</svg>
